<?xml version="1.0" encoding="utf-8"?>
<!-- Generator: Adobe Illustrator 22.1.0, SVG Export Plug-In . SVG Version: 6.00 Build 0)  -->
<svg version="1.1" id="Layer_1" xmlns="http://www.w3.org/2000/svg" xmlns:xlink="http://www.w3.org/1999/xlink" x="0px" y="0px"
	 viewBox="0 0 567.9 595" style="enable-background:new 0 0 567.9 595;" xml:space="preserve">
<style type="text/css">
	.st0{fill:#8E8E93;}
</style>
<g>
	<polygon class="st0" points="319.2,15.6 263.7,0.2 218.3,97.7 273.7,113.1 	"/>
	<path class="st0" d="M88.5,519.7l39.4-84.5l42.3-47l65.2-72.5l-27.1,58.2l53.4,19.7l20.2,7.5l30.2-9.8l-17.1,36.6l73.1-22.4
		l140.7-301.8l-55.4-15.4l-69.4,21.3l-109,121l-89.7,99.7l-0.2-0.1l-16.5,17.3l97.1-208.3l-55.4-15.4L102.5,231.6l11.9-25.5
		L59,190.7L7.8,300.4l18.9,7l0,0l43,15.8l99.1-110.1L0,575.1l53.4,19.7l506.8-205.6l7.7-16.5L88.5,519.7z M375,150.6l57.6-17.7
		l-85,182.3l-33.3,33l-37,11.9L375,150.6z"/>
</g>
</svg>
